<!-- Generator: Adobe Illustrator 22.1.0, SVG Export Plug-In  -->
<svg version="1.1"
	 xmlns="http://www.w3.org/2000/svg" xmlns:xlink="http://www.w3.org/1999/xlink" xmlns:a="http://ns.adobe.com/AdobeSVGViewerExtensions/3.0/"
	 x="0px" y="0px" width="354.7px" height="180.6px" viewBox="0 0 354.7 180.6" style="enable-background:new 0 0 354.7 180.6;"
	 xml:space="preserve">
<style type="text/css">
	.st0{fill:#EF94BE;}
	.st1{fill:#6FC7B3;}
	.st2{fill:#3B439B;}
	.st3{fill:#FFFFFF;}
	.st4{opacity:0.5;}
</style>
<defs>
</defs>
<g>
	<g>
		<g>
			<g>
				<rect x="0" y="176.6" class="st0" width="49.9" height="4"/>
			</g>
			<g>
				<rect x="49.9" y="176.6" class="st1" width="49.9" height="4"/>
			</g>
			<g>
				<rect x="99.8" y="176.6" class="st2" width="49.9" height="4"/>
			</g>
			<g>
				<rect x="150.1" y="176.6" class="st3" width="49.9" height="4"/>
			</g>
		</g>
		<g>
			<g>
				<path class="st2" d="M14,149.4c-3.8,0-6.7-1.1-8.7-3.3c-2-2.2-3-5.4-3-9.6c0-4.2,1-7.5,3.1-9.8c2.1-2.3,5.1-3.4,9-3.4
					c2.7,0,5,0.5,7.2,1.5l-1.6,4.3c-2.3-0.9-4.1-1.3-5.6-1.3c-4.3,0-6.5,2.9-6.5,8.7c0,2.8,0.5,4.9,1.6,6.4s2.7,2.1,4.8,2.1
					c2.4,0,4.6-0.6,6.8-1.8v4.7c-1,0.6-2,1-3.1,1.2S15.5,149.4,14,149.4z"/>
				<path class="st2" d="M49.2,136.3c0,4.1-1.1,7.3-3.2,9.6c-2.1,2.3-5,3.5-8.8,3.5c-2.3,0-4.4-0.5-6.2-1.6
					c-1.8-1.1-3.2-2.6-4.2-4.6c-1-2-1.5-4.3-1.5-6.9c0-4.1,1-7.3,3.1-9.5s5-3.4,8.8-3.4c3.6,0,6.5,1.2,8.6,3.5
					C48.1,129.2,49.2,132.3,49.2,136.3z M30.9,136.3c0,5.8,2.1,8.7,6.4,8.7c4.2,0,6.4-2.9,6.4-8.7c0-5.7-2.1-8.6-6.4-8.6
					c-2.2,0-3.9,0.7-4.9,2.2S30.9,133.5,30.9,136.3z"/>
				<path class="st2" d="M63.8,149.4c-3.1,0-5.6-1.1-7.3-3.4c-1.8-2.3-2.6-5.5-2.6-9.6c0-4.1,0.9-7.3,2.7-9.6
					c1.8-2.3,4.2-3.4,7.4-3.4c3.3,0,5.8,1.2,7.5,3.7h0.3c-0.3-1.8-0.4-3.2-0.4-4.3v-9.2h5.4v35.4h-4.2l-0.9-3.3h-0.2
					C69.6,148.1,67.1,149.4,63.8,149.4z M65.2,145.1c2.2,0,3.8-0.6,4.8-1.9c1-1.2,1.5-3.2,1.5-6v-0.8c0-3.2-0.5-5.4-1.5-6.8
					c-1-1.3-2.6-2-4.8-2c-1.9,0-3.3,0.8-4.3,2.3c-1,1.5-1.5,3.7-1.5,6.5c0,2.8,0.5,4.9,1.5,6.4C61.8,144.3,63.2,145.1,65.2,145.1z"
					/>
				<path class="st2" d="M95.3,149.4c-3.9,0-7-1.1-9.2-3.4c-2.2-2.3-3.3-5.4-3.3-9.4c0-4.1,1-7.3,3.1-9.7c2-2.3,4.9-3.5,8.4-3.5
					c3.3,0,5.9,1,7.9,3s2.9,4.8,2.9,8.3v2.9H88.3c0.1,2.4,0.7,4.3,2,5.6c1.2,1.3,3,2,5.3,2c1.5,0,2.9-0.1,4.1-0.4
					c1.3-0.3,2.7-0.7,4.1-1.4v4.3c-1.3,0.6-2.6,1.1-4,1.3C98.5,149.3,97,149.4,95.3,149.4z M94.3,127.4c-1.7,0-3.1,0.5-4.1,1.6
					c-1,1.1-1.6,2.6-1.8,4.7h11.4c0-2.1-0.5-3.6-1.5-4.7S96,127.4,94.3,127.4z"/>
				<path class="st2" d="M144.4,148.9H139v-15.5c0-1.9-0.4-3.4-1.1-4.3c-0.7-0.9-1.9-1.4-3.4-1.4c-2.1,0-3.6,0.7-4.5,2
					c-1,1.3-1.4,3.6-1.4,6.7v12.5h-5.3v-25.1h4.2l0.8,3.3h0.3c0.7-1.2,1.7-2.1,3-2.8c1.3-0.7,2.8-1,4.4-1c3.9,0,6.4,1.3,7.7,4h0.4
					c0.7-1.2,1.8-2.2,3.1-2.9s2.9-1,4.6-1c3,0,5.2,0.8,6.6,2.3c1.4,1.5,2.1,3.8,2.1,6.9v16.4h-5.3v-15.5c0-1.9-0.4-3.4-1.1-4.3
					c-0.7-0.9-1.9-1.4-3.4-1.4c-2.1,0-3.6,0.6-4.6,1.9c-1,1.3-1.4,3.3-1.4,6V148.9z"/>
				<path class="st2" d="M178.7,149.4c-3.9,0-7-1.1-9.2-3.4c-2.2-2.3-3.3-5.4-3.3-9.4c0-4.1,1-7.3,3.1-9.7c2-2.3,4.9-3.5,8.4-3.5
					c3.3,0,5.9,1,7.9,3s2.9,4.8,2.9,8.3v2.9h-16.8c0.1,2.4,0.7,4.3,2,5.6c1.2,1.3,3,2,5.3,2c1.5,0,2.9-0.1,4.1-0.4
					c1.3-0.3,2.7-0.7,4.1-1.4v4.3c-1.3,0.6-2.6,1.1-4,1.3C181.9,149.3,180.4,149.4,178.7,149.4z M177.7,127.4
					c-1.7,0-3.1,0.5-4.1,1.6c-1,1.1-1.6,2.6-1.8,4.7h11.4c0-2.1-0.5-3.6-1.5-4.7S179.4,127.4,177.7,127.4z"/>
				<path class="st2" d="M216.7,148.9h-5.4v-15.5c0-1.9-0.4-3.4-1.2-4.3c-0.8-1-2-1.4-3.7-1.4c-2.3,0-3.9,0.7-5,2
					c-1,1.3-1.6,3.6-1.6,6.7v12.5h-5.3v-25.1h4.2l0.8,3.3h0.3c0.8-1.2,1.8-2.1,3.2-2.8c1.4-0.7,2.9-1,4.6-1c6,0,9,3.1,9,9.2V148.9z"
					/>
				<path class="st2" d="M233.5,145.1c1.3,0,2.6-0.2,3.9-0.6v4c-0.6,0.3-1.4,0.5-2.3,0.6c-0.9,0.2-1.9,0.3-2.9,0.3
					c-5.1,0-7.6-2.7-7.6-8v-13.5h-3.4v-2.4l3.7-2l1.8-5.3h3.3v5.6h7.2v4H230v13.5c0,1.3,0.3,2.2,1,2.9
					C231.6,144.8,232.4,145.1,233.5,145.1z"/>
				<path class="st2" d="M264.7,136.3c0,4.1-1.1,7.3-3.2,9.6c-2.1,2.3-5,3.5-8.8,3.5c-2.3,0-4.4-0.5-6.2-1.6
					c-1.8-1.1-3.2-2.6-4.2-4.6c-1-2-1.5-4.3-1.5-6.9c0-4.1,1-7.3,3.1-9.5c2.1-2.3,5-3.4,8.8-3.4c3.6,0,6.5,1.2,8.6,3.5
					C263.6,129.2,264.7,132.3,264.7,136.3z M246.4,136.3c0,5.8,2.1,8.7,6.4,8.7c4.2,0,6.4-2.9,6.4-8.7c0-5.7-2.1-8.6-6.4-8.6
					c-2.2,0-3.9,0.7-4.9,2.2S246.4,133.5,246.4,136.3z"/>
				<path class="st2" d="M283.6,123.3c1.1,0,2,0.1,2.7,0.2l-0.5,5c-0.8-0.2-1.5-0.3-2.4-0.3c-2.1,0-3.9,0.7-5.2,2.1s-2,3.2-2,5.4
					v13.1h-5.3v-25.1h4.2l0.7,4.4h0.3c0.8-1.5,1.9-2.7,3.3-3.6C280.6,123.8,282.1,123.3,283.6,123.3z"/>
				<path class="st2" d="M290.6,117.1c0-1,0.3-1.7,0.8-2.2c0.5-0.5,1.3-0.8,2.2-0.8c0.9,0,1.7,0.3,2.2,0.8c0.5,0.5,0.8,1.2,0.8,2.2
					c0,0.9-0.3,1.6-0.8,2.1c-0.5,0.5-1.3,0.8-2.2,0.8c-1,0-1.7-0.3-2.2-0.8C290.9,118.8,290.6,118,290.6,117.1z M296.3,148.9h-5.3
					v-25.1h5.3V148.9z"/>
				<path class="st2" d="M326,148.9h-5.4v-15.5c0-1.9-0.4-3.4-1.2-4.3c-0.8-1-2-1.4-3.7-1.4c-2.3,0-3.9,0.7-5,2
					c-1,1.3-1.6,3.6-1.6,6.7v12.5h-5.3v-25.1h4.2l0.8,3.3h0.3c0.8-1.2,1.8-2.1,3.2-2.8c1.4-0.7,2.9-1,4.6-1c6,0,9,3.1,9,9.2V148.9z"
					/>
				<path class="st2" d="M354.7,123.8v2.9l-4.3,0.8c0.4,0.5,0.7,1.2,1,2c0.3,0.8,0.4,1.6,0.4,2.5c0,2.6-0.9,4.6-2.7,6.1
					c-1.8,1.5-4.3,2.2-7.4,2.2c-0.8,0-1.5-0.1-2.2-0.2c-1.2,0.7-1.7,1.5-1.7,2.5c0,0.6,0.3,1,0.8,1.3c0.5,0.3,1.5,0.4,3,0.4h4.4
					c2.8,0,4.9,0.6,6.3,1.8c1.4,1.2,2.2,2.9,2.2,5.1c0,2.8-1.2,5-3.5,6.6c-2.3,1.5-5.7,2.3-10.2,2.3c-3.4,0-6-0.6-7.8-1.8
					c-1.8-1.2-2.7-2.9-2.7-5.2c0-1.5,0.5-2.8,1.5-3.9s2.3-1.8,4.1-2.2c-0.7-0.3-1.3-0.8-1.8-1.5c-0.5-0.7-0.7-1.4-0.7-2.1
					c0-0.9,0.3-1.7,0.8-2.4s1.3-1.3,2.4-1.9c-1.3-0.6-2.4-1.5-3.2-2.7c-0.8-1.3-1.2-2.7-1.2-4.4c0-2.7,0.9-4.8,2.6-6.3
					c1.7-1.5,4.2-2.3,7.4-2.3c0.7,0,1.5,0,2.2,0.1s1.4,0.2,1.8,0.3H354.7z M334.9,152.8c0,1.2,0.5,2,1.6,2.7s2.5,0.9,4.4,0.9
					c2.9,0,5.1-0.4,6.5-1.2c1.4-0.8,2.1-1.9,2.1-3.3c0-1.1-0.4-1.9-1.2-2.3c-0.8-0.5-2.2-0.7-4.4-0.7h-4c-1.5,0-2.7,0.4-3.6,1.1
					C335.4,150.6,334.9,151.6,334.9,152.8z M337.2,131.9c0,1.6,0.4,2.8,1.2,3.6c0.8,0.8,2,1.3,3.5,1.3c3.1,0,4.6-1.7,4.6-5
					c0-1.6-0.4-2.9-1.1-3.8c-0.8-0.9-1.9-1.3-3.5-1.3c-1.5,0-2.7,0.4-3.5,1.3C337.6,129,337.2,130.2,337.2,131.9z"/>
			</g>
			<g class="st4">
				<path class="st2" d="M12.9,87h-2.8v-8c0-1-0.2-1.7-0.6-2.2s-1-0.7-1.8-0.7c-1.1,0-1.8,0.3-2.3,1S4.7,79,4.7,80.6V87H2v-13h2.2
					l0.4,1.7h0.1c0.4-0.6,0.9-1.1,1.6-1.4s1.4-0.5,2.3-0.5c2,0,3.3,0.7,4,2h0.2c0.4-0.6,0.9-1.1,1.6-1.5s1.5-0.5,2.4-0.5
					c1.5,0,2.7,0.4,3.4,1.2s1.1,2,1.1,3.6V87h-2.8v-8c0-1-0.2-1.7-0.6-2.2s-1-0.7-1.8-0.7c-1.1,0-1.9,0.3-2.3,1s-0.7,1.7-0.7,3.1V87
					z"/>
				<path class="st2" d="M30.6,87.3c-2,0-3.6-0.6-4.7-1.8s-1.7-2.8-1.7-4.9c0-2.1,0.5-3.8,1.6-5s2.5-1.8,4.3-1.8
					c1.7,0,3.1,0.5,4.1,1.6s1.5,2.5,1.5,4.3v1.5H27c0,1.3,0.4,2.2,1,2.9s1.5,1,2.7,1c0.8,0,1.5-0.1,2.1-0.2s1.4-0.4,2.1-0.7v2.2
					c-0.7,0.3-1.4,0.5-2,0.7S31.5,87.3,30.6,87.3z M30.1,75.9c-0.9,0-1.6,0.3-2.1,0.8s-0.8,1.4-0.9,2.4h5.9c0-1.1-0.3-1.9-0.8-2.4
					S30.9,75.9,30.1,75.9z"/>
				<path class="st2" d="M41.5,87h-2.8V68.8h2.8V87z"/>
				<path class="st2" d="M52.1,73.8c1.6,0,2.9,0.6,3.8,1.8s1.4,2.8,1.4,4.9c0,2.1-0.5,3.8-1.4,5s-2.2,1.8-3.8,1.8
					c-1.6,0-2.9-0.6-3.8-1.8H48L47.5,87h-2.1V68.8h2.8v4.3c0,0.3,0,0.8,0,1.4s-0.1,1-0.1,1.2h0.1C49.1,74.5,50.4,73.8,52.1,73.8z
					 M51.3,76.1c-1.1,0-1.9,0.3-2.4,1s-0.7,1.7-0.8,3.3v0.2c0,1.6,0.2,2.7,0.8,3.4s1.3,1.1,2.4,1.1c1,0,1.7-0.4,2.2-1.2
					s0.8-1.9,0.8-3.4C54.4,77.6,53.4,76.1,51.3,76.1z"/>
				<path class="st2" d="M71.9,80.5c0,2.1-0.5,3.8-1.6,5s-2.6,1.8-4.5,1.8c-1.2,0-2.3-0.3-3.2-0.8s-1.6-1.3-2.1-2.4
					s-0.8-2.2-0.8-3.6c0-2.1,0.5-3.7,1.6-4.9s2.6-1.8,4.6-1.8c1.9,0,3.4,0.6,4.5,1.8S71.9,78.5,71.9,80.5z M62.4,80.5
					c0,3,1.1,4.5,3.3,4.5c2.2,0,3.3-1.5,3.3-4.5c0-3-1.1-4.4-3.3-4.4c-1.2,0-2,0.4-2.5,1.1S62.4,79.1,62.4,80.5z"/>
				<path class="st2" d="M84.2,87l-0.4-1.7h-0.1c-0.4,0.6-0.9,1.1-1.6,1.4s-1.5,0.5-2.4,0.5c-1.6,0-2.7-0.4-3.5-1.2s-1.2-2-1.2-3.6
					v-8.5h2.8v8c0,1,0.2,1.7,0.6,2.2s1,0.7,1.9,0.7c1.2,0,2-0.3,2.5-1s0.8-1.8,0.8-3.5v-6.5h2.8v13H84.2z"/>
				<path class="st2" d="M96.9,73.8c0.6,0,1,0,1.4,0.1L98,76.5c-0.4-0.1-0.8-0.1-1.2-0.1c-1.1,0-2,0.4-2.7,1.1s-1,1.7-1,2.8V87h-2.8
					v-13h2.2l0.4,2.3h0.1c0.4-0.8,1-1.4,1.7-1.8S96.1,73.8,96.9,73.8z"/>
				<path class="st2" d="M112,87h-2.8v-8c0-1-0.2-1.7-0.6-2.2s-1-0.7-1.9-0.7c-1.2,0-2,0.3-2.6,1s-0.8,1.8-0.8,3.5V87h-2.8v-13h2.2
					l0.4,1.7h0.1c0.4-0.6,0.9-1.1,1.7-1.4s1.5-0.5,2.4-0.5c3.1,0,4.7,1.6,4.7,4.7V87z"/>
				<path class="st2" d="M121.5,87.3c-2,0-3.6-0.6-4.7-1.8s-1.7-2.8-1.7-4.9c0-2.1,0.5-3.8,1.6-5s2.5-1.8,4.3-1.8
					c1.7,0,3.1,0.5,4.1,1.6s1.5,2.5,1.5,4.3v1.5h-8.6c0,1.3,0.4,2.2,1,2.9s1.5,1,2.7,1c0.8,0,1.5-0.1,2.1-0.2s1.4-0.4,2.1-0.7v2.2
					c-0.7,0.3-1.4,0.5-2,0.7S122.4,87.3,121.5,87.3z M121,75.9c-0.9,0-1.6,0.3-2.1,0.8s-0.8,1.4-0.9,2.4h5.9c0-1.1-0.3-1.9-0.8-2.4
					S121.9,75.9,121,75.9z"/>
			</g>
		</g>
	</g>
</g>
<g>
	<g>
		<g>
			<g>
				<path class="st2" d="M12.1,25.5c-1.5,0-2.7-0.4-3.5-1.3c-0.8-0.9-1.2-2.2-1.2-3.8c0-1.7,0.4-3,1.2-3.9c0.8-0.9,2-1.4,3.6-1.4
					c1.1,0,2,0.2,2.9,0.6l-0.6,1.7c-0.9-0.4-1.6-0.5-2.2-0.5c-1.7,0-2.6,1.2-2.6,3.5c0,1.1,0.2,2,0.7,2.5c0.4,0.6,1.1,0.9,1.9,0.9
					c1,0,1.9-0.2,2.7-0.7v1.9c-0.4,0.2-0.8,0.4-1.2,0.5C13.2,25.5,12.7,25.5,12.1,25.5z"/>
			</g>
			<g>
				<path class="st2" d="M25.7,25.4h-2.1v-6.2c0-0.8-0.1-1.3-0.4-1.7c-0.3-0.4-0.7-0.6-1.4-0.6c-0.8,0-1.4,0.3-1.8,0.8
					c-0.4,0.5-0.6,1.4-0.6,2.7v5h-2.1V15.3h1.7l0.3,1.3h0.1c0.3-0.5,0.7-0.8,1.2-1.1c0.5-0.3,1.1-0.4,1.8-0.4c1.5,0,2.6,0.5,3.1,1.6
					h0.1c0.3-0.5,0.7-0.9,1.3-1.2c0.5-0.3,1.2-0.4,1.9-0.4c1.2,0,2.1,0.3,2.6,0.9c0.5,0.6,0.8,1.5,0.8,2.8v6.6h-2.1v-6.2
					c0-0.8-0.1-1.3-0.4-1.7c-0.3-0.4-0.8-0.6-1.4-0.6c-0.8,0-1.4,0.3-1.8,0.8c-0.4,0.5-0.6,1.3-0.6,2.4V25.4z"/>
			</g>
		</g>
	</g>
	<g>
		<g>
			<g>
				<path class="st2" d="M14.8,39.3c-3.4-0.9-6.5-2.7-9-5.2c-2.5-2.5-4.3-5.6-5.2-9l1.5-0.4C3,27.9,4.7,30.7,7,33
					c2.3,2.3,5.1,3.9,8.3,4.8L14.8,39.3z"/>
			</g>
		</g>
		<g>
			<g>
				<path class="st0" d="M0.7,25.2c-1.8-6.9,0.1-14.3,5.2-19.3L7,7c-4.6,4.6-6.5,11.4-4.8,17.8L0.7,25.2z"/>
			</g>
		</g>
		<g>
			<g>
				<path class="st1" d="M7,7L5.9,5.9c5-5,12.4-7,19.3-5.2l-0.4,1.5C18.4,0.5,11.6,2.4,7,7z"/>
			</g>
		</g>
		<g>
			<g>
				<path class="st2" d="M37.8,15.2C37,12.1,35.3,9.3,33,7c-2.3-2.3-5.1-3.9-8.2-4.8l0.4-1.5c3.4,0.9,6.5,2.7,9,5.2
					c2.5,2.5,4.3,5.6,5.2,9L37.8,15.2z"/>
			</g>
		</g>
		<g>
			<g>
				<path class="st0" d="M34.1,34.1L33,33c4.6-4.6,6.5-11.4,4.8-17.8l1.5-0.4C41.2,21.7,39.2,29.1,34.1,34.1z"/>
			</g>
		</g>
		<g>
			<g>
				<path class="st1" d="M20,40c-1.7,0-3.4-0.2-5.1-0.7l0.4-1.5c6.3,1.7,13.1-0.1,17.8-4.8l1.1,1.1C30.4,37.9,25.2,40,20,40z"/>
			</g>
		</g>
	</g>
</g>
</svg>
